HIERARCHY
ROOT Hips
{
	OFFSET -0.001795 -0.223333 0.028219
	CHANNELS 6 Xposition Yposition Zposition Zrotation Yrotation Xrotation 
	JOINT LeftUpLeg
	{
		OFFSET 0.069520 -0.091406 -0.006815
		CHANNELS 3 Zrotation Yrotation Xrotation
		JOINT LeftLeg
		{
			OFFSET 0.034277 -0.375199 -0.004496
			CHANNELS 3 Zrotation Yrotation Xrotation
			JOINT LeftFoot
			{
				OFFSET -0.013596 -0.397961 -0.043693
				CHANNELS 3 Zrotation Yrotation Xrotation
				JOINT LeftToe
				{
					OFFSET 0.026358 -0.055791 0.119288
					CHANNELS 3 Zrotation Yrotation Xrotation
					End Site
					{
						OFFSET 0.000000 0.000000 0.000000
					}
				}
			}
		}
	}
	JOINT RightUpLeg
	{
		OFFSET -0.067670 -0.090522 -0.004320
		CHANNELS 3 Zrotation Yrotation Xrotation
		JOINT RightLeg
		{
			OFFSET -0.038290 -0.382569 -0.008850
			CHANNELS 3 Zrotation Yrotation Xrotation
			JOINT RightFoot
			{
				OFFSET 0.015774 -0.398415 -0.042312
				CHANNELS 3 Zrotation Yrotation Xrotation
				JOINT RightToe
				{
					OFFSET -0.025372 -0.048144 0.123348
					CHANNELS 3 Zrotation Yrotation Xrotation
					End Site
					{
						OFFSET 0.000000 0.000000 0.000000
					}
				}
			}
		}
	}
	JOINT Spine
	{
		OFFSET -0.002533 0.108963 -0.026696
		CHANNELS 3 Zrotation Yrotation Xrotation
		JOINT Spine1
		{
			OFFSET 0.005487 0.135180 0.001092
			CHANNELS 3 Zrotation Yrotation Xrotation
			JOINT Spine2
			{
				OFFSET 0.001457 0.052922 0.025425
				CHANNELS 3 Zrotation Yrotation Xrotation
				JOINT Neck
				{
					OFFSET -0.002778 0.213870 -0.042857
					CHANNELS 3 Zrotation Yrotation Xrotation
					JOINT Head
					{
						OFFSET 0.005152 0.064970 0.051349
						CHANNELS 3 Zrotation Yrotation Xrotation
						End Site
						{
							OFFSET 0.000000 0.000000 0.000000
						}
					}
				}
				JOINT LeftShoulder
				{
					OFFSET 0.078845 0.121749 -0.034090
					CHANNELS 3 Zrotation Yrotation Xrotation
					JOINT LeftArm
					{
						OFFSET 0.090977 0.030469 -0.008868
						CHANNELS 3 Zrotation Yrotation Xrotation
						JOINT LeftForeArm
						{
							OFFSET 0.259612 -0.012772 -0.027456
							CHANNELS 3 Zrotation Yrotation Xrotation
							JOINT LeftHand
							{
								OFFSET 0.249234 0.008986 -0.001171
								CHANNELS 3 Zrotation Yrotation Xrotation
								End Site
								{
									OFFSET 0.000000 0.000000 0.000000
								}
							}
						}
					}
				}
				JOINT RightShoulder
				{
					OFFSET -0.081759 0.118833 -0.038615
					CHANNELS 3 Zrotation Yrotation Xrotation
					JOINT RightArm
					{
						OFFSET -0.096012 0.032551 -0.009143
						CHANNELS 3 Zrotation Yrotation Xrotation
						JOINT RightForeArm
						{
							OFFSET -0.253742 -0.013329 -0.021401
							CHANNELS 3 Zrotation Yrotation Xrotation
							JOINT RightHand
							{
								OFFSET -0.255298 0.007772 -0.005559
								CHANNELS 3 Zrotation Yrotation Xrotation
								End Site
								{
									OFFSET 0.000000 0.000000 0.000000
								}
							}
						}
					}
				}
			}
		}
	}
}
MOTION
Frames: 11
Frame Time: 0.050000
0.166706 0.860616 -0.009691 -6.226215 2.323438 24.967017 7.969894 -1.821077 -58.782378 0.288047 -1.691159 41.276696 6.943727 15.549036 1.051515 0.000000 0.000000 0.000000 1.370244 4.765118 -44.739188 -0.236777 1.772246 46.002405 -7.303720 -19.147234 2.346550 0.000000 0.000000 0.000000 -8.276829 1.711133 46.668774 -2.279743 0.989762 0.097011 -9.282857 17.625425 6.403616 13.319391 -1.743925 -28.202965 0.000000 0.000000 0.000000 27.327206 -43.210221 9.358196 22.757944 -37.422449 -12.441399 48.956759 11.887735 3.476512 0.000000 0.000000 0.000000 -29.200137 27.433757 3.436229 -19.162840 46.503405 -5.552762 -50.651923 -3.193804 5.095717 0.000000 0.000000 0.000000 
0.165739 0.854507 -0.009450 -6.123697 2.413026 24.921685 8.577144 -1.567099 -59.222456 -0.857192 -1.144891 42.153462 7.211840 15.945232 -0.500643 0.000000 0.000000 0.000000 1.018488 4.645632 -44.879249 0.028564 1.647940 47.571259 -6.773935 -17.697126 -1.123919 0.000000 0.000000 0.000000 -8.343433 1.725406 47.026648 -2.233340 0.969259 0.106232 -9.820679 17.362985 6.097634 13.332621 -2.028670 -26.888885 0.000000 0.000000 0.000000 27.926314 -43.287476 9.218835 22.523544 -36.960190 -12.134863 49.500722 12.209229 3.601276 0.000000 0.000000 0.000000 -29.869536 27.282660 3.254409 -20.690096 46.377551 -5.988533 -49.656327 -4.814313 5.608000 0.000000 0.000000 0.000000 
0.164264 0.847842 -0.008978 -5.890288 2.252270 24.897662 9.357657 -1.147647 -59.789923 -2.492034 -0.288515 43.272934 7.558276 16.552542 -1.895812 0.000000 0.000000 0.000000 1.002187 4.699717 -45.251973 -0.431777 2.019830 49.632251 -6.328515 -16.204478 -4.377700 0.000000 0.000000 0.000000 -8.905084 2.060843 47.444658 -1.940431 0.844821 -0.034402 -10.281939 17.209696 6.445479 13.491393 -2.264039 -26.274239 0.000000 0.000000 0.000000 30.194716 -42.076285 8.648200 22.282348 -36.322269 -11.810005 49.839518 13.442110 3.889729 0.000000 0.000000 0.000000 -30.869202 26.900972 2.882002 -22.445845 45.982853 -6.403266 -48.275713 -6.591837 6.098696 0.000000 0.000000 0.000000 
0.162522 0.842569 -0.008005 -5.604558 2.478109 25.035361 10.316627 -0.756689 -60.489973 -4.406173 0.712464 44.137456 7.738516 16.909806 -2.770400 0.000000 0.000000 0.000000 1.404219 4.802323 -45.390255 -1.114132 2.437770 50.739098 -6.550033 -16.586075 -6.735391 0.000000 0.000000 0.000000 -9.235293 2.182598 47.659533 -1.739857 0.748997 0.289124 -10.936244 16.628337 6.052022 13.417384 -2.637946 -24.582581 0.000000 0.000000 0.000000 30.891014 -41.636426 8.473841 21.786173 -35.402914 -11.209765 50.709432 12.499226 3.480748 0.000000 0.000000 0.000000 -30.876454 26.777834 2.917574 -24.151171 45.913682 -6.990886 -47.235970 -7.450653 6.191211 0.000000 0.000000 0.000000 
0.160921 0.839439 -0.006582 -5.545212 2.841528 25.263941 11.229055 -0.414026 -60.769867 -5.825705 1.450672 44.175427 7.817041 17.062894 -3.669424 0.000000 0.000000 0.000000 1.996220 4.915955 -45.207916 -1.962918 2.925983 51.373657 -6.417850 -15.870459 -9.140713 0.000000 0.000000 0.000000 -9.656094 2.316443 47.436188 -1.793639 0.766984 0.447739 -10.820559 16.516243 6.099964 13.139615 -2.634183 -23.988236 0.000000 0.000000 0.000000 31.166597 -41.192673 8.406975 21.512680 -35.190817 -11.034406 52.007868 11.896546 3.218259 0.000000 0.000000 0.000000 -30.729281 26.513132 2.895418 -24.097577 46.024982 -6.986373 -47.140732 -8.017075 6.411113 0.000000 0.000000 0.000000 
0.159730 0.835830 -0.004864 -5.437882 3.195694 25.146714 12.177661 -0.056806 -60.750125 -7.501508 2.330195 44.337633 7.919958 17.242474 -4.707744 0.000000 0.000000 0.000000 2.733746 5.017173 -44.502099 -3.274894 3.727343 52.277237 -6.130194 -14.338058 -12.198254 0.000000 0.000000 0.000000 -10.015055 2.421874 47.662290 -1.526351 0.639138 0.721075 -11.284282 16.134842 5.647457 13.215408 -2.842199 -23.322634 0.000000 0.000000 0.000000 30.167640 -40.927964 8.593413 20.865446 -34.672209 -10.555041 53.302902 10.375198 2.599077 0.000000 0.000000 0.000000 -29.374180 26.689369 3.320426 -24.397234 46.060599 -7.227506 -47.217386 -7.803469 6.287095 0.000000 0.000000 0.000000 
0.158895 0.831476 -0.003244 -5.310167 3.858250 25.066203 12.813424 0.023163 -60.526725 -8.685559 2.869593 44.062521 7.983855 17.287692 -6.602691 0.000000 0.000000 0.000000 3.247200 4.961152 -43.540742 -4.135804 4.123356 52.424191 -6.152656 -13.823439 -15.260308 0.000000 0.000000 0.000000 -10.267467 2.389484 47.587051 -1.587873 0.657861 0.846912 -11.085836 15.838884 5.440552 13.311339 -3.023327 -22.820527 0.000000 0.000000 0.000000 28.854610 -41.001141 8.834669 20.369360 -34.671643 -10.325423 54.353108 9.384911 2.240198 0.000000 0.000000 0.000000 -27.751794 26.942576 3.822569 -23.583349 45.843016 -7.079849 -47.690861 -7.301195 6.165563 0.000000 0.000000 0.000000 
0.158286 0.824740 -0.002002 -5.012914 4.412477 25.034827 13.747913 0.284745 -60.552127 -10.717532 3.891688 43.996162 8.150784 17.579411 -8.792922 0.000000 0.000000 0.000000 3.220052 4.831553 -43.340805 -4.995060 4.658823 54.220349 -5.838185 -11.549208 -18.559312 0.000000 0.000000 0.000000 -10.379417 2.311781 47.790482 -1.309117 0.526357 0.926412 -11.453821 15.498461 5.239111 12.872327 -2.883780 -22.456747 0.000000 0.000000 0.000000 28.248321 -40.799502 8.928828 19.645737 -34.243459 -9.894850 54.523542 9.375619 2.209300 0.000000 0.000000 0.000000 -25.875809 27.275069 4.440805 -23.086103 45.783448 -7.084239 -47.337463 -7.088836 5.964216 0.000000 0.000000 0.000000 
0.157873 0.817546 -0.001001 -4.584265 5.402624 24.874026 14.609468 0.348148 -61.029036 -12.830597 4.938683 44.574012 8.186040 17.601413 -10.324305 0.000000 0.000000 0.000000 3.295588 4.652865 -43.047728 -5.701275 4.973789 55.914515 -5.907814 -11.044869 -21.243431 0.000000 0.000000 0.000000 -10.538884 2.140198 48.094674 -1.201028 0.461979 1.149334 -11.289227 14.833772 5.221041 12.586538 -2.741887 -22.596312 0.000000 0.000000 0.000000 27.477620 -40.523147 9.009678 19.319811 -33.915424 -9.567761 53.509813 10.101263 2.555153 0.000000 0.000000 0.000000 -24.166031 27.649084 5.036433 -22.183116 45.686003 -6.998426 -47.379647 -6.696793 5.753536 0.000000 0.000000 0.000000 
0.157660 0.807118 0.000044 -4.239283 5.935456 24.444208 16.072055 0.890903 -61.638329 -15.951844 6.739488 45.804646 8.364585 18.003432 -11.894024 0.000000 0.000000 0.000000 2.779903 4.430580 -43.408820 -5.368511 4.796512 58.958518 -6.036757 -10.790019 -23.544998 0.000000 0.000000 0.000000 -10.896671 2.174100 48.511649 -1.203381 0.448424 1.476263 -10.711400 14.631086 4.801795 12.426382 -2.542372 -23.143687 0.000000 0.000000 0.000000 26.211414 -40.608442 9.291195 18.007996 -34.202386 -9.272249 53.302093 9.944787 2.522384 0.000000 0.000000 0.000000 -21.624752 28.767315 6.133176 -21.269339 46.127410 -7.049599 -46.962794 -5.638177 5.147159 0.000000 0.000000 0.000000 
0.157831 0.793830 0.001547 -4.030892 6.639139 23.792414 17.680468 1.476905 -62.634669 -19.104667 8.783747 47.890995 8.518647 18.331408 -13.416798 0.000000 0.000000 0.000000 2.547396 4.271816 -43.848730 -5.821168 5.176903 62.739861 -5.987459 -9.145128 -25.904663 0.000000 0.000000 0.000000 -11.249203 2.157031 48.693234 -1.175076 0.421384 1.720693 -10.066229 14.388237 4.666359 12.037466 -2.345335 -23.215965 0.000000 0.000000 0.000000 24.943614 -40.631665 9.524902 15.958162 -34.675289 -8.795861 52.112065 9.915606 2.455239 0.000000 0.000000 0.000000 -19.052696 30.066293 7.331699 -20.058035 46.849441 -7.055635 -46.077898 -5.028717 4.642003 0.000000 0.000000 0.000000 
